<svg width="25" height="16" viewBox="0 0 25 16" fill="none" xmlns="http://www.w3.org/2000/svg">
<path d="M24.0625 12.1294H8.61875M3.1675 12.1294H0.9375M3.1675 12.1294C3.1675 11.4067 3.4546 10.7136 3.96563 10.2025C4.47667 9.69148 5.16979 9.40438 5.8925 9.40438C6.61522 9.40438 7.30833 9.69148 7.81937 10.2025C8.3304 10.7136 8.6175 11.4067 8.6175 12.1294C8.6175 12.8521 8.3304 13.5452 7.81937 14.0562C7.30833 14.5673 6.61522 14.8544 5.8925 14.8544C5.16979 14.8544 4.47667 14.5673 3.96563 14.0562C3.4546 13.5452 3.1675 12.8521 3.1675 12.1294ZM24.0625 3.87063H20.1813M14.73 3.87063H0.9375M14.73 3.87063C14.73 3.14792 15.0171 2.4548 15.5281 1.94376C16.0392 1.43273 16.7323 1.14563 17.455 1.14563C17.8129 1.14563 18.1672 1.21611 18.4978 1.35306C18.8284 1.49 19.1288 1.69072 19.3819 1.94376C19.6349 2.1968 19.8356 2.49721 19.9726 2.82782C20.1095 3.15843 20.18 3.51278 20.18 3.87063C20.18 4.22848 20.1095 4.58283 19.9726 4.91344C19.8356 5.24405 19.6349 5.54446 19.3819 5.7975C19.1288 6.05054 18.8284 6.25126 18.4978 6.3882C18.1672 6.52515 17.8129 6.59563 17.455 6.59563C16.7323 6.59563 16.0392 6.30853 15.5281 5.7975C15.0171 5.28646 14.73 4.59334 14.73 3.87063Z" stroke="#010E14" stroke-width="1.875" stroke-miterlimit="10" stroke-linecap="round"/>
</svg>
