<svg width="22" height="22" viewBox="0 0 22 22" fill="none" xmlns="http://www.w3.org/2000/svg">
<path d="M11.1354 0.5625C11.4255 0.5625 11.7037 0.677734 11.9088 0.882852C12.1139 1.08797 12.2292 1.36617 12.2292 1.65625V10.0417H20.6146C20.9047 10.0417 21.1829 10.1569 21.388 10.362C21.5931 10.5671 21.7083 10.8453 21.7083 11.1354C21.7083 11.4255 21.5931 11.7037 21.388 11.9088C21.1829 12.1139 20.9047 12.2292 20.6146 12.2292H12.2292V20.6146C12.2292 20.9047 12.1139 21.1829 11.9088 21.388C11.7037 21.5931 11.4255 21.7083 11.1354 21.7083C10.8453 21.7083 10.5671 21.5931 10.362 21.388C10.1569 21.1829 10.0417 20.9047 10.0417 20.6146V12.2292H1.65625C1.36617 12.2292 1.08797 12.1139 0.882852 11.9088C0.677734 11.7037 0.5625 11.4255 0.5625 11.1354C0.5625 10.8453 0.677734 10.5671 0.882852 10.362C1.08797 10.1569 1.36617 10.0417 1.65625 10.0417H10.0417V1.65625C10.0417 1.36617 10.1569 1.08797 10.362 0.882852C10.5671 0.677734 10.8453 0.5625 11.1354 0.5625Z" fill="#010E14"/>
</svg>
