<svg width="19" height="22" viewBox="0 0 19 22" fill="none" xmlns="http://www.w3.org/2000/svg">
<path d="M5.33335 1.625H3.25002C2.69749 1.625 2.16758 1.84449 1.77688 2.23519C1.38618 2.62589 1.16669 3.1558 1.16669 3.70833V18.2917C1.16669 18.8442 1.38618 19.3741 1.77688 19.7648C2.16758 20.1555 2.69749 20.375 3.25002 20.375H15.75C16.3026 20.375 16.8325 20.1555 17.2232 19.7648C17.6139 19.3741 17.8334 18.8442 17.8334 18.2917V3.70833C17.8334 3.1558 17.6139 2.62589 17.2232 2.23519C16.8325 1.84449 16.3026 1.625 15.75 1.625H11.5834M5.33335 1.625V11L8.45835 7.875L11.5834 11V1.625M5.33335 1.625H11.5834" stroke="#010E14" stroke-width="2.08333" stroke-linecap="round" stroke-linejoin="round"/>
</svg>
