<svg width="21" height="20" viewBox="0 0 21 20" fill="none" xmlns="http://www.w3.org/2000/svg">
<path d="M14.3271 6.21248C14.5032 6.04484 14.7375 5.95217 14.9806 5.95401C15.2237 5.95585 15.4566 6.05206 15.6301 6.22234C15.8037 6.39263 15.9043 6.62366 15.9107 6.8667C15.9171 7.10974 15.8289 7.34577 15.6646 7.52498L10.6771 13.7625C10.5913 13.8549 10.4878 13.929 10.3727 13.9804C10.2577 14.0319 10.1334 14.0596 10.0074 14.062C9.88137 14.0643 9.75616 14.0412 9.63927 13.994C9.52238 13.9469 9.4162 13.8766 9.32708 13.7875L6.01958 10.48C5.92747 10.3942 5.85359 10.2907 5.80235 10.1757C5.75111 10.0607 5.72356 9.93652 5.72134 9.81064C5.71912 9.68476 5.74227 9.55972 5.78942 9.44299C5.83657 9.32625 5.90676 9.22021 5.99578 9.13119C6.0848 9.04216 6.19084 8.97198 6.30758 8.92483C6.42432 8.87768 6.54935 8.85452 6.67523 8.85674C6.80111 8.85896 6.92525 8.88652 7.04025 8.93776C7.15525 8.989 7.25875 9.06287 7.34458 9.15498L9.96208 11.7712L14.3033 6.23998C14.3111 6.23036 14.3182 6.22118 14.3271 6.21248Z" fill="#010E14"/>
</svg>
