<svg width="22" height="22" viewBox="0 0 22 22" fill="none" xmlns="http://www.w3.org/2000/svg">
<path d="M14.5 13.0833L11.375 11V5.79167M2 11C2 12.2311 2.24249 13.4502 2.71363 14.5877C3.18477 15.7251 3.87532 16.7586 4.74587 17.6291C5.61642 18.4997 6.64992 19.1902 7.78734 19.6614C8.92477 20.1325 10.1439 20.375 11.375 20.375C12.6061 20.375 13.8252 20.1325 14.9627 19.6614C16.1001 19.1902 17.1336 18.4997 18.0041 17.6291C18.8747 16.7586 19.5652 15.7251 20.0364 14.5877C20.5075 13.4502 20.75 12.2311 20.75 11C20.75 9.76886 20.5075 8.54977 20.0364 7.41234C19.5652 6.27492 18.8747 5.24142 18.0041 4.37087C17.1336 3.50032 16.1001 2.80977 14.9627 2.33863C13.8252 1.86749 12.6061 1.625 11.375 1.625C10.1439 1.625 8.92477 1.86749 7.78734 2.33863C6.64992 2.80977 5.61642 3.50032 4.74587 4.37087C3.87532 5.24142 3.18477 6.27492 2.71363 7.41234C2.24249 8.54977 2 9.76886 2 11Z" stroke="#010E14" stroke-width="2.08333" stroke-linecap="round" stroke-linejoin="round"/>
</svg>
