<svg width="16" height="17" viewBox="0 0 16 17" fill="none" xmlns="http://www.w3.org/2000/svg">
<path d="M8.75 8.5C8.75 8.64834 8.70601 8.79334 8.6236 8.91668C8.54119 9.04001 8.42406 9.13614 8.28701 9.19291C8.14997 9.24967 7.99917 9.26453 7.85368 9.23559C7.7082 9.20665 7.57456 9.13522 7.46967 9.03033C7.36478 8.92544 7.29335 8.7918 7.26441 8.64632C7.23547 8.50083 7.25032 8.35003 7.30709 8.21299C7.36386 8.07594 7.45999 7.95881 7.58332 7.8764C7.70666 7.79399 7.85166 7.75 8 7.75C8.19891 7.75 8.38968 7.82902 8.53033 7.96967C8.67098 8.11032 8.75 8.30109 8.75 8.5Z" fill="#737C80"/>
</svg>
