<svg width="10" height="6" viewBox="0 0 10 6" fill="none" xmlns="http://www.w3.org/2000/svg">
<path d="M4.38953 5.58358L0.174419 1.17629C0.116279 1.1155 0.0728683 1.04984 0.0441861 0.979327C0.015504 0.90881 0.000775193 0.83262 0 0.750756C0 0.588648 0.0534883 0.446804 0.160465 0.325223C0.267442 0.203643 0.407752 0.142853 0.581395 0.142853H9.4186C9.59302 0.142853 9.73371 0.203643 9.84069 0.325223C9.94767 0.446804 10.0008 0.588648 9.99999 0.750756C9.99999 0.791282 9.94185 0.933127 9.82557 1.17629L5.61046 5.58358C5.51356 5.6849 5.41666 5.75582 5.31976 5.79635C5.22286 5.83687 5.11627 5.85714 5 5.85714C4.88372 5.85714 4.77713 5.83687 4.68023 5.79635C4.58333 5.75582 4.48643 5.6849 4.38953 5.58358Z" fill="#010E14"/>
</svg>
