<svg width="21" height="21" viewBox="0 0 21 21" fill="none" xmlns="http://www.w3.org/2000/svg">
<path fill-rule="evenodd" clip-rule="evenodd" d="M17.723 4.0042C17.8334 3.88572 17.8935 3.72902 17.8906 3.5671C17.8878 3.40518 17.8222 3.25069 17.7076 3.13618C17.5931 3.02167 17.4387 2.95608 17.2767 2.95322C17.1148 2.95037 16.9581 3.01047 16.8396 3.12087L3.5063 16.4542C3.44489 16.5114 3.39564 16.5804 3.36148 16.6571C3.32732 16.7338 3.30895 16.8165 3.30747 16.9004C3.30599 16.9844 3.32143 17.0677 3.35286 17.1455C3.3843 17.2234 3.43108 17.2941 3.49043 17.3534C3.54978 17.4127 3.62048 17.4595 3.6983 17.491C3.77612 17.5224 3.85948 17.5378 3.9434 17.5364C4.02732 17.5349 4.11008 17.5165 4.18675 17.4824C4.26341 17.4482 4.33241 17.3989 4.38963 17.3375L6.9188 14.8084C8.01713 15.315 9.27463 15.6459 10.6146 15.6459C12.7963 15.6459 14.758 14.77 16.1713 13.685C16.8796 13.1417 17.4605 12.5384 17.8671 11.9517C18.2671 11.375 18.5313 10.77 18.5313 10.2292C18.5313 9.68837 18.2671 9.08337 17.8671 8.50753C17.4605 7.92003 16.8796 7.3167 16.1713 6.7742C15.9463 6.60087 15.7063 6.43253 15.4546 6.27337L17.723 4.0042ZM13.223 8.50587L12.3063 9.42087C12.4734 9.77075 12.5279 10.1638 12.4624 10.546C12.3968 10.9281 12.2144 11.2806 11.9402 11.5548C11.666 11.8289 11.3136 12.0114 10.9314 12.0769C10.5493 12.1425 10.1562 12.088 9.8063 11.9209L8.88963 12.8375C9.49057 13.2354 10.2106 13.4134 10.9277 13.3412C11.6448 13.2691 12.3149 12.9513 12.8245 12.4416C13.3342 11.932 13.652 11.2619 13.7241 10.5448C13.7963 9.82765 13.6184 9.10764 13.2205 8.5067L13.223 8.50587Z" fill="#737C80"/>
<path d="M11.173 7.15417C11.2073 7.16059 11.2426 7.15864 11.276 7.14848C11.3093 7.13833 11.3398 7.12027 11.3647 7.09583L12.9897 5.47083C13.0149 5.44599 13.0332 5.41495 13.0427 5.38082C13.0522 5.34669 13.0526 5.31066 13.0439 5.27633C13.0351 5.242 13.0175 5.21057 12.9927 5.18519C12.968 5.1598 12.9371 5.14135 12.903 5.13167C12.1583 4.92176 11.3884 4.81439 10.6147 4.8125C8.433 4.8125 6.47133 5.68833 5.058 6.77333C4.34966 7.31667 3.76883 7.92 3.36133 8.50667C2.96133 9.08333 2.698 9.68833 2.698 10.2292C2.698 10.77 2.96216 11.375 3.36133 11.9508C3.75788 12.5074 4.2264 13.009 4.75466 13.4425C4.79419 13.4752 4.84454 13.4918 4.89575 13.4892C4.94697 13.4866 4.99535 13.4649 5.03133 13.4283L7.48133 10.9783C7.50576 10.9534 7.52383 10.923 7.53398 10.8896C7.54414 10.8563 7.54609 10.821 7.53966 10.7867C7.44936 10.2897 7.48088 9.7782 7.63152 9.29605C7.78216 8.8139 8.04743 8.37546 8.40461 8.01828C8.76179 7.6611 9.20024 7.39583 9.68238 7.24518C10.1645 7.09454 10.676 7.06303 11.173 7.15333V7.15417Z" fill="#737C80"/>
</svg>
