<svg width="20" height="21" viewBox="0 0 20 21" fill="none" xmlns="http://www.w3.org/2000/svg">
<g id="basil:eye-solid">
<path id="Vector" d="M10 8.625C9.50272 8.625 9.02581 8.82254 8.67417 9.17417C8.32254 9.52581 8.125 10.0027 8.125 10.5C8.125 10.9973 8.32254 11.4742 8.67417 11.8258C9.02581 12.1775 9.50272 12.375 10 12.375C10.4973 12.375 10.9742 12.1775 11.3258 11.8258C11.6775 11.4742 11.875 10.9973 11.875 10.5C11.875 10.0027 11.6775 9.52581 11.3258 9.17417C10.9742 8.82254 10.4973 8.625 10 8.625Z" fill="#737C80"/>
<path id="Vector_2" fill-rule="evenodd" clip-rule="evenodd" d="M10 5.08337C7.81837 5.08337 5.85671 5.95921 4.44337 7.04421C3.73504 7.58754 3.15421 8.19087 2.74671 8.77754C2.34671 9.35421 2.08337 9.95921 2.08337 10.5C2.08337 11.0409 2.34754 11.6459 2.74671 12.2217C3.15504 12.8092 3.73504 13.4125 4.44337 13.955C5.85671 15.0417 7.81837 15.9167 10 15.9167C12.1817 15.9167 14.1434 15.0409 15.5567 13.9559C16.265 13.4125 16.8459 12.8092 17.2525 12.2225C17.6525 11.6459 17.9167 11.0409 17.9167 10.5C17.9167 9.95921 17.6525 9.35421 17.2525 8.77837C16.8459 8.19087 16.265 7.58754 15.5567 7.04504C14.1434 5.95837 12.1817 5.08337 10 5.08337ZM6.87504 10.5C6.87504 9.67124 7.20428 8.87638 7.79033 8.29033C8.37638 7.70428 9.17124 7.37504 10 7.37504C10.8288 7.37504 11.6237 7.70428 12.2097 8.29033C12.7958 8.87638 13.125 9.67124 13.125 10.5C13.125 11.3288 12.7958 12.1237 12.2097 12.7097C11.6237 13.2958 10.8288 13.625 10 13.625C9.17124 13.625 8.37638 13.2958 7.79033 12.7097C7.20428 12.1237 6.87504 11.3288 6.87504 10.5Z" fill="#737C80"/>
</g>
</svg>
