<svg width="95" height="45" viewBox="0 0 95 45" fill="none" xmlns="http://www.w3.org/2000/svg">
<g clip-path="url(#clip0_767_6190)">
<path d="M19.6875 0C21.2432 0 22.5 1.25684 22.5 2.8125V5.8623C25.2158 6.31934 27.7031 7.41797 29.8125 9.00879C31.0518 9.94043 31.3066 11.707 30.375 12.9463C29.4434 14.1855 27.6768 14.4404 26.4375 13.5088C24.5566 12.085 22.2275 11.25 19.6875 11.25C13.4736 11.25 8.4375 16.2861 8.4375 22.5C8.4375 28.7139 13.4736 33.75 19.6875 33.75C22.2275 33.75 24.5566 32.915 26.4375 31.5C27.6768 30.5684 29.4434 30.8145 30.375 32.0625C31.3066 33.3105 31.0605 35.0684 29.8125 36C27.7031 37.582 25.207 38.6895 22.5 39.1465V42.1875C22.5 43.7432 21.2432 45 19.6875 45C18.1318 45 16.875 43.7432 16.875 42.1875V39.1377C8.89453 37.8018 2.8125 30.8584 2.8125 22.5C2.8125 14.1416 8.89453 7.19824 16.875 5.8623V2.8125C16.875 1.25684 18.1318 0 19.6875 0Z" fill="#CDC1FF"/>
<path d="M43.322 38.288C42.602 38.288 42.05 38.096 41.666 37.712C41.282 37.304 41.09 36.728 41.09 35.984V14.6C41.09 13.856 41.282 13.292 41.666 12.908C42.05 12.524 42.602 12.332 43.322 12.332C44.042 12.332 44.594 12.524 44.978 12.908C45.386 13.292 45.59 13.856 45.59 14.6V23.924H45.086C45.614 22.652 46.43 21.692 47.534 21.044C48.662 20.372 49.934 20.036 51.35 20.036C52.766 20.036 53.93 20.3 54.842 20.828C55.754 21.356 56.438 22.16 56.894 23.24C57.35 24.296 57.578 25.64 57.578 27.272V35.984C57.578 36.728 57.386 37.304 57.002 37.712C56.618 38.096 56.066 38.288 55.346 38.288C54.626 38.288 54.062 38.096 53.654 37.712C53.27 37.304 53.078 36.728 53.078 35.984V27.488C53.078 26.12 52.814 25.124 52.286 24.5C51.782 23.876 50.99 23.564 49.91 23.564C48.59 23.564 47.534 23.984 46.742 24.824C45.974 25.64 45.59 26.732 45.59 28.1V35.984C45.59 37.52 44.834 38.288 43.322 38.288ZM68.7006 38.252C67.9806 38.252 67.4286 38.036 67.0446 37.604C66.6606 37.172 66.4686 36.572 66.4686 35.804V22.592C66.4686 21.8 66.6606 21.2 67.0446 20.792C67.4286 20.36 67.9806 20.144 68.7006 20.144C69.4206 20.144 69.9726 20.36 70.3566 20.792C70.7646 21.2 70.9686 21.8 70.9686 22.592V35.804C70.9686 36.572 70.7766 37.172 70.3926 37.604C70.0086 38.036 69.4446 38.252 68.7006 38.252ZM68.7006 16.796C67.8606 16.796 67.2006 16.592 66.7206 16.184C66.2646 15.752 66.0366 15.164 66.0366 14.42C66.0366 13.652 66.2646 13.064 66.7206 12.656C67.2006 12.248 67.8606 12.044 68.7006 12.044C69.5646 12.044 70.2246 12.248 70.6806 12.656C71.1366 13.064 71.3646 13.652 71.3646 14.42C71.3646 15.164 71.1366 15.752 70.6806 16.184C70.2246 16.592 69.5646 16.796 68.7006 16.796ZM88.0284 38.36C86.4684 38.36 85.1604 38.096 84.1044 37.568C83.0724 37.04 82.3044 36.272 81.8004 35.264C81.2964 34.232 81.0444 32.96 81.0444 31.448V23.78H79.1724C78.5964 23.78 78.1524 23.636 77.8404 23.348C77.5284 23.036 77.3724 22.616 77.3724 22.088C77.3724 21.536 77.5284 21.116 77.8404 20.828C78.1524 20.54 78.5964 20.396 79.1724 20.396H81.0444V17.12C81.0444 16.376 81.2364 15.812 81.6204 15.428C82.0284 15.044 82.5924 14.852 83.3124 14.852C84.0324 14.852 84.5844 15.044 84.9684 15.428C85.3524 15.812 85.5444 16.376 85.5444 17.12V20.396H89.3604C89.9364 20.396 90.3804 20.54 90.6924 20.828C91.0044 21.116 91.1604 21.536 91.1604 22.088C91.1604 22.616 91.0044 23.036 90.6924 23.348C90.3804 23.636 89.9364 23.78 89.3604 23.78H85.5444V31.196C85.5444 32.348 85.7964 33.212 86.3004 33.788C86.8044 34.364 87.6204 34.652 88.7484 34.652C89.1564 34.652 89.5164 34.616 89.8284 34.544C90.1404 34.472 90.4164 34.424 90.6564 34.4C90.9444 34.376 91.1844 34.472 91.3764 34.688C91.5684 34.88 91.6644 35.288 91.6644 35.912C91.6644 36.392 91.5804 36.824 91.4124 37.208C91.2684 37.568 90.9924 37.82 90.5844 37.964C90.2724 38.06 89.8644 38.144 89.3604 38.216C88.8564 38.312 88.4124 38.36 88.0284 38.36Z" fill="#CDC1FF"/>
</g>
<defs>
<clipPath id="clip0_767_6190">
<rect width="94.75" height="45" fill="white"/>
</clipPath>
</defs>
</svg>
