<svg width="22" height="20" viewBox="0 0 22 20" fill="none" xmlns="http://www.w3.org/2000/svg">
<path d="M16.2083 14.1666L20.375 9.99996M20.375 9.99996L16.2083 5.83329M20.375 9.99996H5.79167M12.0417 14.1666V15.2083C12.0417 16.0371 11.7124 16.8319 11.1264 17.418C10.5403 18.0041 9.74547 18.3333 8.91667 18.3333H4.75C3.9212 18.3333 3.12634 18.0041 2.54029 17.418C1.95424 16.8319 1.625 16.0371 1.625 15.2083V4.79163C1.625 3.96282 1.95424 3.16797 2.54029 2.58192C3.12634 1.99587 3.9212 1.66663 4.75 1.66663H8.91667C9.74547 1.66663 10.5403 1.99587 11.1264 2.58192C11.7124 3.16797 12.0417 3.96282 12.0417 4.79163V5.83329" stroke="#010E14" stroke-width="2.08333" stroke-linecap="round" stroke-linejoin="round"/>
</svg>
