<svg width="115" height="65" viewBox="0 0 115 65" fill="none" xmlns="http://www.w3.org/2000/svg">
<path d="M29.6875 10C31.2432 10 32.5 11.2568 32.5 12.8125V15.8623C35.2158 16.3193 37.7031 17.418 39.8125 19.0088C41.0518 19.9404 41.3066 21.707 40.375 22.9463C39.4434 24.1855 37.6768 24.4404 36.4375 23.5088C34.5566 22.085 32.2275 21.25 29.6875 21.25C23.4736 21.25 18.4375 26.2861 18.4375 32.5C18.4375 38.7139 23.4736 43.75 29.6875 43.75C32.2275 43.75 34.5566 42.915 36.4375 41.5C37.6768 40.5684 39.4434 40.8145 40.375 42.0625C41.3066 43.3105 41.0605 45.0684 39.8125 46C37.7031 47.582 35.207 48.6895 32.5 49.1465V52.1875C32.5 53.7432 31.2432 55 29.6875 55C28.1318 55 26.875 53.7432 26.875 52.1875V49.1377C18.8945 47.8018 12.8125 40.8584 12.8125 32.5C12.8125 24.1416 18.8945 17.1982 26.875 15.8623V12.8125C26.875 11.2568 28.1318 10 29.6875 10Z" fill="#CDC1FF"/>
<path d="M53.322 48.288C52.602 48.288 52.05 48.096 51.666 47.712C51.282 47.304 51.09 46.728 51.09 45.984V24.6C51.09 23.856 51.282 23.292 51.666 22.908C52.05 22.524 52.602 22.332 53.322 22.332C54.042 22.332 54.594 22.524 54.978 22.908C55.386 23.292 55.59 23.856 55.59 24.6V33.924H55.086C55.614 32.652 56.43 31.692 57.534 31.044C58.662 30.372 59.934 30.036 61.35 30.036C62.766 30.036 63.93 30.3 64.842 30.828C65.754 31.356 66.438 32.16 66.894 33.24C67.35 34.296 67.578 35.64 67.578 37.272V45.984C67.578 46.728 67.386 47.304 67.002 47.712C66.618 48.096 66.066 48.288 65.346 48.288C64.626 48.288 64.062 48.096 63.654 47.712C63.27 47.304 63.078 46.728 63.078 45.984V37.488C63.078 36.12 62.814 35.124 62.286 34.5C61.782 33.876 60.99 33.564 59.91 33.564C58.59 33.564 57.534 33.984 56.742 34.824C55.974 35.64 55.59 36.732 55.59 38.1V45.984C55.59 47.52 54.834 48.288 53.322 48.288ZM78.7006 48.252C77.9806 48.252 77.4286 48.036 77.0446 47.604C76.6606 47.172 76.4686 46.572 76.4686 45.804V32.592C76.4686 31.8 76.6606 31.2 77.0446 30.792C77.4286 30.36 77.9806 30.144 78.7006 30.144C79.4206 30.144 79.9726 30.36 80.3566 30.792C80.7646 31.2 80.9686 31.8 80.9686 32.592V45.804C80.9686 46.572 80.7766 47.172 80.3926 47.604C80.0086 48.036 79.4446 48.252 78.7006 48.252ZM78.7006 26.796C77.8606 26.796 77.2006 26.592 76.7206 26.184C76.2646 25.752 76.0366 25.164 76.0366 24.42C76.0366 23.652 76.2646 23.064 76.7206 22.656C77.2006 22.248 77.8606 22.044 78.7006 22.044C79.5646 22.044 80.2246 22.248 80.6806 22.656C81.1366 23.064 81.3646 23.652 81.3646 24.42C81.3646 25.164 81.1366 25.752 80.6806 26.184C80.2246 26.592 79.5646 26.796 78.7006 26.796ZM98.0284 48.36C96.4684 48.36 95.1604 48.096 94.1044 47.568C93.0724 47.04 92.3044 46.272 91.8004 45.264C91.2964 44.232 91.0444 42.96 91.0444 41.448V33.78H89.1724C88.5964 33.78 88.1524 33.636 87.8404 33.348C87.5284 33.036 87.3724 32.616 87.3724 32.088C87.3724 31.536 87.5284 31.116 87.8404 30.828C88.1524 30.54 88.5964 30.396 89.1724 30.396H91.0444V27.12C91.0444 26.376 91.2364 25.812 91.6204 25.428C92.0284 25.044 92.5924 24.852 93.3124 24.852C94.0324 24.852 94.5844 25.044 94.9684 25.428C95.3524 25.812 95.5444 26.376 95.5444 27.12V30.396H99.3604C99.9364 30.396 100.38 30.54 100.692 30.828C101.004 31.116 101.16 31.536 101.16 32.088C101.16 32.616 101.004 33.036 100.692 33.348C100.38 33.636 99.9364 33.78 99.3604 33.78H95.5444V41.196C95.5444 42.348 95.7964 43.212 96.3004 43.788C96.8044 44.364 97.6204 44.652 98.7484 44.652C99.1564 44.652 99.5164 44.616 99.8284 44.544C100.14 44.472 100.416 44.424 100.656 44.4C100.944 44.376 101.184 44.472 101.376 44.688C101.568 44.88 101.664 45.288 101.664 45.912C101.664 46.392 101.58 46.824 101.412 47.208C101.268 47.568 100.992 47.82 100.584 47.964C100.272 48.06 99.8644 48.144 99.3604 48.216C98.8564 48.312 98.4124 48.36 98.0284 48.36Z" fill="#CDC1FF"/>
</svg>
