<svg width="21" height="20" viewBox="0 0 21 20" fill="none" xmlns="http://www.w3.org/2000/svg">
<path d="M3.8083 19.2363C3.65874 19.3664 3.47518 19.4511 3.27917 19.4804C3.08316 19.5098 2.88284 19.4827 2.70172 19.4022C2.52061 19.3217 2.36622 19.1912 2.25667 19.026C2.14713 18.8608 2.08699 18.6678 2.0833 18.4697V16.1332C1.53076 16.1332 1.00086 15.9137 0.610159 15.523C0.219458 15.1323 -3.52859e-05 14.6024 -3.52859e-05 14.0499V6.7582C-3.52859e-05 6.20567 0.219458 5.67577 0.610159 5.28507C1.00086 4.89436 1.53076 4.67487 2.0833 4.67487H13.5416C14.0942 4.67487 14.6241 4.89436 15.0148 5.28507C15.4055 5.67577 15.625 6.20567 15.625 6.7582V14.0499C15.625 14.6024 15.4055 15.1323 15.0148 15.523C14.6241 15.9137 14.0942 16.1332 13.5416 16.1332H8.33642L3.8083 19.2363ZM4.68746 16.0145C4.78238 16.0139 4.8756 15.9892 4.9583 15.9426L7.41142 14.2363C7.58601 14.1149 7.79357 14.0499 8.00621 14.0499H12.5C12.7762 14.0499 13.0412 13.9401 13.2365 13.7448C13.4319 13.5494 13.5416 13.2845 13.5416 13.0082V7.79987C13.5416 7.5236 13.4319 7.25865 13.2365 7.0633C13.0412 6.86795 12.7762 6.7582 12.5 6.7582H3.12496C2.8487 6.7582 2.58375 6.86795 2.3884 7.0633C2.19304 7.25865 2.0833 7.5236 2.0833 7.79987V13.0082C2.0833 13.5707 2.53017 14.0311 3.12496 14.0499C3.55205 14.0665 3.86142 14.1363 4.00413 14.2853C4.13746 14.4249 4.14476 14.6603 4.16663 15.1082C4.16976 15.1738 4.16976 15.2926 4.16663 15.4936C4.16663 15.6318 4.2215 15.7642 4.31918 15.8619C4.41686 15.9596 4.54933 16.0145 4.68746 16.0145ZM16.6666 10.9415C16.6633 11.07 16.6633 11.1985 16.6666 11.327V10.9415C16.6875 10.4936 16.6958 10.2582 16.8291 10.1186C16.9718 9.96966 17.2812 9.89987 17.7083 9.8832C18.3031 9.86445 18.75 9.40404 18.75 8.84154V3.63321C18.75 3.35694 18.6402 3.09199 18.4449 2.89664C18.2495 2.70129 17.9846 2.59154 17.7083 2.59154H8.3333C8.05703 2.59154 7.79208 2.70129 7.59673 2.89664C7.40138 3.09199 7.29163 3.35694 7.29163 3.63321H5.2083V2.59154C5.2083 2.039 5.42779 1.5091 5.81849 1.1184C6.20919 0.727699 6.7391 0.508205 7.29163 0.508205H18.75C19.3025 0.508205 19.8324 0.727699 20.2231 1.1184C20.6138 1.5091 20.8333 2.039 20.8333 2.59154V9.8832C20.8333 10.4357 20.6138 10.9656 20.2231 11.3563C19.8324 11.747 19.3025 11.9665 18.75 11.9665V14.303C18.7463 14.5012 18.6861 14.6942 18.5766 14.8593C18.467 15.0245 18.3127 15.155 18.1315 15.2355C17.9504 15.316 17.7501 15.3431 17.5541 15.3138C17.3581 15.2844 17.1745 15.1997 17.025 15.0697L16.6666 14.8238V10.9426V10.9415Z" fill="#010E14"/>
</svg>
