<svg width="5" height="19" viewBox="0 0 5 19" fill="none" xmlns="http://www.w3.org/2000/svg">
<path d="M2.91659 0.125C1.77075 0.125 0.833252 1.0625 0.833252 2.20833C0.833252 3.35417 1.77075 4.29167 2.91659 4.29167C4.06242 4.29167 4.99992 3.35417 4.99992 2.20833C4.99992 1.0625 4.06242 0.125 2.91659 0.125ZM2.91659 14.7083C1.77075 14.7083 0.833252 15.6458 0.833252 16.7917C0.833252 17.9375 1.77075 18.875 2.91659 18.875C4.06242 18.875 4.99992 17.9375 4.99992 16.7917C4.99992 15.6458 4.06242 14.7083 2.91659 14.7083ZM2.91659 7.41667C1.77075 7.41667 0.833252 8.35417 0.833252 9.5C0.833252 10.6458 1.77075 11.5833 2.91659 11.5833C4.06242 11.5833 4.99992 10.6458 4.99992 9.5C4.99992 8.35417 4.06242 7.41667 2.91659 7.41667Z" fill="#010E14"/>
</svg>
