<svg width="25" height="16" viewBox="0 0 25 16" fill="none" xmlns="http://www.w3.org/2000/svg">
<path d="M7.25 14.25V13.2083C7.25 11.827 7.79873 10.5022 8.77549 9.52549C9.75224 8.54873 11.077 8 12.4583 8M12.4583 8C13.8397 8 15.1644 8.54873 16.1412 9.52549C17.1179 10.5022 17.6667 11.827 17.6667 13.2083V14.25M12.4583 8C13.2871 8 14.082 7.67076 14.668 7.08471C15.2541 6.49866 15.5833 5.7038 15.5833 4.875C15.5833 4.0462 15.2541 3.25134 14.668 2.66529C14.082 2.07924 13.2871 1.75 12.4583 1.75C11.6295 1.75 10.8347 2.07924 10.2486 2.66529C9.66257 3.25134 9.33333 4.0462 9.33333 4.875C9.33333 5.7038 9.66257 6.49866 10.2486 7.08471C10.8347 7.67076 11.6295 8 12.4583 8ZM1 14.25V13.2083C1 12.3795 1.32924 11.5847 1.91529 10.9986C2.50134 10.4126 3.2962 10.0833 4.125 10.0833M4.125 10.0833C4.67753 10.0833 5.20744 9.86384 5.59814 9.47314C5.98884 9.08244 6.20833 8.55253 6.20833 8C6.20833 7.44747 5.98884 6.91756 5.59814 6.52686C5.20744 6.13616 4.67753 5.91667 4.125 5.91667C3.57247 5.91667 3.04256 6.13616 2.65186 6.52686C2.26116 6.91756 2.04167 7.44747 2.04167 8C2.04167 8.55253 2.26116 9.08244 2.65186 9.47314C3.04256 9.86384 3.57247 10.0833 4.125 10.0833ZM23.9167 14.25V13.2083C23.9167 12.3795 23.5874 11.5847 23.0014 10.9986C22.4153 10.4126 21.6205 10.0833 20.7917 10.0833M20.7917 10.0833C21.3442 10.0833 21.8741 9.86384 22.2648 9.47314C22.6555 9.08244 22.875 8.55253 22.875 8C22.875 7.44747 22.6555 6.91756 22.2648 6.52686C21.8741 6.13616 21.3442 5.91667 20.7917 5.91667C20.2391 5.91667 19.7092 6.13616 19.3185 6.52686C18.9278 6.91756 18.7083 7.44747 18.7083 8C18.7083 8.55253 18.9278 9.08244 19.3185 9.47314C19.7092 9.86384 20.2391 10.0833 20.7917 10.0833Z" stroke="#010E14" stroke-width="2" stroke-linecap="round" stroke-linejoin="round"/>
</svg>
