<svg width="19" height="19" viewBox="0 0 19 19" fill="none" xmlns="http://www.w3.org/2000/svg">
<path d="M5.29167 5.29155H2.16667C1.8904 5.29155 1.62545 5.4013 1.4301 5.59665C1.23475 5.792 1.125 6.05695 1.125 6.33322V16.7499C1.125 17.0262 1.23475 17.2911 1.4301 17.4865C1.62545 17.6818 1.8904 17.7916 2.16667 17.7916H13.625C13.9013 17.7916 14.1662 17.6818 14.3616 17.4865C14.5569 17.2911 14.6667 17.0262 14.6667 16.7499V12.0624M17.176 1.73947C17.3712 1.93458 17.5261 2.16623 17.6317 2.42119C17.7373 2.67615 17.7917 2.94943 17.7917 3.22541C17.7917 3.50139 17.7373 3.77466 17.6317 4.02962C17.5261 4.28458 17.3712 4.51624 17.176 4.71135L10.0469 11.8405L6.33333 12.5832L7.07604 8.86968L14.2052 1.74051C14.4002 1.54524 14.6317 1.39032 14.8866 1.28462C15.1415 1.17892 15.4147 1.12451 15.6906 1.12451C15.9666 1.12451 16.2398 1.17892 16.4947 1.28462C16.7495 1.39032 16.9811 1.54524 17.176 1.74051V1.73947Z" stroke="#CDC1FF" stroke-width="2.08333" stroke-linecap="round" stroke-linejoin="round"/>
</svg>
