<svg width="19" height="22" viewBox="0 0 19 22" fill="none" xmlns="http://www.w3.org/2000/svg">
<path d="M7.44391 1.88423C7.59954 1.49956 7.86651 1.17012 8.21059 0.938161C8.55468 0.706199 8.96019 0.582275 9.37516 0.582275C9.79012 0.582275 10.1956 0.706199 10.5397 0.938161C10.8838 1.17012 11.1508 1.49956 11.3064 1.88423C12.8468 2.30786 14.2055 3.22544 15.1739 4.49604C16.1423 5.76664 16.6668 7.32 16.6668 8.91756V13.8103L18.5752 16.6728C18.6798 16.8296 18.7399 17.012 18.7491 17.2004C18.7582 17.3887 18.7161 17.576 18.6271 17.7423C18.5381 17.9086 18.4057 18.0476 18.2439 18.1445C18.0821 18.2414 17.8971 18.2926 17.7085 18.2926H12.9845C12.8591 19.1604 12.4252 19.954 11.7623 20.5279C11.0995 21.1019 10.252 21.4178 9.37516 21.4178C8.49832 21.4178 7.65084 21.1019 6.98797 20.5279C6.32509 19.954 5.8912 19.1604 5.76578 18.2926H1.04182C0.853236 18.2926 0.66818 18.2414 0.506397 18.1445C0.344613 18.0476 0.212172 17.9086 0.123204 17.7423C0.0342354 17.576 -0.00792266 17.3887 0.00122693 17.2004C0.0103765 17.012 0.0704906 16.8296 0.175156 16.6728L2.08349 13.8103V8.91756C2.08349 5.55923 4.35432 2.73006 7.44391 1.88423ZM7.90224 18.2926C8.00982 18.5974 8.20931 18.8614 8.4732 19.0481C8.7371 19.2348 9.05241 19.3351 9.37568 19.3351C9.69895 19.3351 10.0143 19.2348 10.2782 19.0481C10.542 18.8614 10.7415 18.5974 10.8491 18.2926H7.9012H7.90224ZM9.37516 3.70923C7.99382 3.70923 6.66906 4.25796 5.69231 5.23472C4.71556 6.21147 4.16682 7.53623 4.16682 8.91756V14.1259C4.16687 14.3317 4.10597 14.5328 3.99182 14.704L2.9887 16.2092H15.7606L14.7574 14.704C14.6437 14.5327 14.5831 14.3316 14.5835 14.1259V8.91756C14.5835 7.53623 14.0348 6.21147 13.058 5.23472C12.0813 4.25796 10.7565 3.70923 9.37516 3.70923Z" fill="#010E14"/>
</svg>
