<svg width="20" height="20" viewBox="0 0 20 20" fill="none" xmlns="http://www.w3.org/2000/svg">
<path d="M12.9823 9.10313H17.9253C19.3158 9.10313 20 8.40788 20 6.97428V2.11819C20 0.684125 19.3158 0 17.9253 0H12.9823C11.6024 0 10.9071 0.684125 10.9071 2.11819V6.97428C10.9071 8.40788 11.6024 9.10313 12.9823 9.10313ZM2.07472 9.10313H7.02883C8.40827 9.10313 9.10355 8.40788 9.10355 6.97428V2.11819C9.10355 0.684125 8.40827 0 7.02883 0H2.07472C0.695281 0 0 0.684125 0 2.11819V6.97428C0 8.40788 0.695281 9.10313 2.07472 9.10313ZM2.09651 7.57173C1.71642 7.57173 1.53147 7.37613 1.53147 6.97381V2.11866C1.53147 1.72746 1.71642 1.53187 2.09697 1.53187H6.99638C7.37647 1.53187 7.57208 1.72746 7.57208 2.11866V6.97474C7.57208 7.37659 7.37647 7.57219 6.99638 7.57219L2.09651 7.57173ZM13.0036 7.57173C12.6235 7.57173 12.439 7.37613 12.439 6.97381V2.11866C12.439 1.72746 12.6235 1.53187 13.0036 1.53187H17.9142C18.2836 1.53187 18.4685 1.72746 18.4685 2.11866V6.97474C18.4685 7.37659 18.2836 7.57219 17.9142 7.57219L13.0036 7.57173ZM3.61732 5.69224H5.47511C5.63827 5.69224 5.70316 5.62735 5.70316 5.44241V3.6394C5.70316 3.46512 5.63827 3.40023 5.47511 3.40023H3.61732C3.45462 3.40023 3.41105 3.46512 3.41105 3.63893V5.44241C3.41105 5.62688 3.45462 5.69224 3.61732 5.69224ZM14.5898 5.6927H16.4369C16.5996 5.6927 16.665 5.62781 16.665 5.44287V3.63986C16.665 3.46558 16.6001 3.40069 16.4369 3.40069H14.5898C14.4271 3.40069 14.3729 3.46558 14.3729 3.6394V5.44287C14.3729 5.62735 14.4271 5.6927 14.5898 5.6927ZM2.07472 20H7.02883C8.40827 20 9.10355 19.3159 9.10355 17.8818V13.0151C9.10355 11.5921 8.40827 10.8969 7.02883 10.8969H2.07472C0.695281 10.8969 0 11.5921 0 13.0151V17.8818C0 19.3159 0.695281 20 2.07472 20ZM11.6348 13.7103H13.4926C13.6558 13.7103 13.7207 13.6454 13.7207 13.46V11.657C13.7207 11.4832 13.6558 11.4183 13.4926 11.4183H11.6348C11.4721 11.4183 11.4286 11.4832 11.4286 11.657V13.46C11.4286 13.6454 11.4721 13.7103 11.6348 13.7103ZM17.4038 13.7103H19.2611C19.4243 13.7103 19.4897 13.6454 19.4897 13.46V11.657C19.4897 11.4832 19.4243 11.4183 19.2611 11.4183H17.4038C17.2407 11.4183 17.186 11.4832 17.186 11.657V13.46C17.186 13.6454 17.2407 13.7103 17.4038 13.7103ZM2.09651 18.4677C1.71642 18.4677 1.53147 18.2721 1.53147 17.8809V13.0248C1.53147 12.6229 1.71642 12.4273 2.09697 12.4273H6.99638C7.37647 12.4273 7.57208 12.6229 7.57208 13.0253V17.8809C7.57208 18.2721 7.37647 18.4677 6.99638 18.4677H2.09651ZM3.61732 16.5988H5.47511C5.63827 16.5988 5.70316 16.534 5.70316 16.3384V14.546C5.70316 14.3722 5.63827 14.3068 5.47511 14.3068H3.61732C3.45462 14.3068 3.41105 14.3717 3.41105 14.546V16.3384C3.41105 16.534 3.45462 16.5988 3.61732 16.5988ZM14.5467 16.5988H16.404C16.5672 16.5988 16.6321 16.534 16.6321 16.3384V14.546C16.6321 14.3722 16.5672 14.3068 16.404 14.3068H14.5462C14.3835 14.3068 14.3399 14.3717 14.3399 14.546V16.3384C14.3399 16.534 14.3835 16.5988 14.5467 16.5988ZM11.6348 19.4776H13.4926C13.6558 19.4776 13.7207 19.4127 13.7207 19.2278V17.4248C13.7207 17.2505 13.6558 17.1856 13.4926 17.1856H11.6348C11.4721 17.1856 11.4286 17.2505 11.4286 17.4248V19.2278C11.4286 19.4127 11.4721 19.4776 11.6348 19.4776ZM17.4038 19.4781H19.2611C19.4243 19.4781 19.4897 19.4132 19.4897 19.2283V17.4253C19.4897 17.251 19.4243 17.1861 19.2611 17.1861H17.4038C17.2407 17.1861 17.186 17.251 17.186 17.4253V19.2283C17.186 19.4132 17.2407 19.4781 17.4038 19.4781Z" fill="#010E14"/>
</svg>
