<svg width="20" height="25" viewBox="0 0 20 25" fill="none" xmlns="http://www.w3.org/2000/svg">
<path d="M10.625 10.3125C10.625 10.0639 10.7238 9.8254 10.8996 9.64959C11.0754 9.47377 11.3139 9.375 11.5625 9.375H15.9375C16.1861 9.375 16.4246 9.47377 16.6004 9.64959C16.7762 9.8254 16.875 10.0639 16.875 10.3125C16.875 10.5611 16.7762 10.7996 16.6004 10.9754C16.4246 11.1512 16.1861 11.25 15.9375 11.25H11.5625C11.3139 11.25 11.0754 11.1512 10.8996 10.9754C10.7238 10.7996 10.625 10.5611 10.625 10.3125ZM11.5625 16.25C11.3139 16.25 11.0754 16.3488 10.8996 16.5246C10.7238 16.7004 10.625 16.9389 10.625 17.1875C10.625 17.4361 10.7238 17.6746 10.8996 17.8504C11.0754 18.0262 11.3139 18.125 11.5625 18.125H15.9375C16.1861 18.125 16.4246 18.0262 16.6004 17.8504C16.7762 17.6746 16.875 17.4361 16.875 17.1875C16.875 16.9389 16.7762 16.7004 16.6004 16.5246C16.4246 16.3488 16.1861 16.25 15.9375 16.25H11.5625ZM8.475 9.725C8.56711 9.63917 8.64099 9.53567 8.69223 9.42067C8.74347 9.30567 8.77102 9.18153 8.77324 9.05565C8.77546 8.92977 8.75231 8.80474 8.70515 8.688C8.658 8.57127 8.58782 8.46523 8.4988 8.3762C8.40977 8.28718 8.30373 8.217 8.187 8.16985C8.07026 8.12269 7.94523 8.09954 7.81935 8.10176C7.69347 8.10398 7.56933 8.13153 7.45433 8.18277C7.33933 8.23401 7.23583 8.30789 7.15 8.4L5.3125 10.2375L4.725 9.65C4.54728 9.4844 4.31222 9.39424 4.06935 9.39853C3.82647 9.40281 3.59474 9.50121 3.42297 9.67297C3.25121 9.84474 3.15282 10.0765 3.14853 10.3193C3.14425 10.5622 3.2344 10.7973 3.4 10.975L4.65 12.225C4.82578 12.4006 5.06406 12.4992 5.3125 12.4992C5.56094 12.4992 5.79922 12.4006 5.975 12.225L8.475 9.725ZM8.475 15.275C8.65056 15.4508 8.74918 15.6891 8.74918 15.9375C8.74918 16.1859 8.65056 16.4242 8.475 16.6L5.975 19.1C5.79922 19.2756 5.56094 19.3742 5.3125 19.3742C5.06406 19.3742 4.82578 19.2756 4.65 19.1L3.4 17.85C3.30789 17.7642 3.23401 17.6607 3.18277 17.5457C3.13153 17.4307 3.10398 17.3065 3.10176 17.1807C3.09954 17.0548 3.1227 16.9297 3.16985 16.813C3.217 16.6963 3.28718 16.5902 3.3762 16.5012C3.46523 16.4122 3.57127 16.342 3.688 16.2948C3.80474 16.2477 3.92977 16.2245 4.05565 16.2268C4.18153 16.229 4.30567 16.2565 4.42067 16.3078C4.53567 16.359 4.63917 16.4329 4.725 16.525L5.3125 17.1125L7.15 15.275C7.32578 15.0994 7.56406 15.0008 7.8125 15.0008C8.06094 15.0008 8.29922 15.0994 8.475 15.275ZM14.9925 2.605C14.9401 1.8969 14.6218 1.23483 14.1016 0.751649C13.5813 0.268473 12.8975 -4.16222e-05 12.1875 4.83926e-09H7.8125C7.1207 2.09056e-05 6.45318 0.255009 5.93755 0.716214C5.42193 1.17742 5.09437 1.81249 5.0175 2.5H2.8125C2.06658 2.5 1.35121 2.79632 0.823762 3.32376C0.296316 3.85121 0 4.56658 0 5.3125V22.1875C0 22.9334 0.296316 23.6488 0.823762 24.1762C1.35121 24.7037 2.06658 25 2.8125 25H17.1875C17.5568 25 17.9226 24.9273 18.2638 24.7859C18.605 24.6446 18.9151 24.4374 19.1762 24.1762C19.4374 23.9151 19.6446 23.605 19.7859 23.2638C19.9273 22.9226 20 22.5568 20 22.1875V5.3125C20 4.94316 19.9273 4.57743 19.7859 4.2362C19.6446 3.89497 19.4374 3.58493 19.1762 3.32376C18.9151 3.0626 18.605 2.85543 18.2638 2.71409C17.9226 2.57275 17.5568 2.5 17.1875 2.5H14.9825L14.9925 2.605ZM14.9925 2.62L15 2.8125C15 2.7475 14.9963 2.68375 14.9925 2.62ZM7.8125 5.625H12.1875C13.1625 5.625 14.0213 5.12875 14.5263 4.375H17.1875C17.4361 4.375 17.6746 4.47377 17.8504 4.64959C18.0262 4.8254 18.125 5.06386 18.125 5.3125V22.1875C18.125 22.4361 18.0262 22.6746 17.8504 22.8504C17.6746 23.0262 17.4361 23.125 17.1875 23.125H2.8125C2.56386 23.125 2.3254 23.0262 2.14959 22.8504C1.97377 22.6746 1.875 22.4361 1.875 22.1875V5.3125C1.875 5.06386 1.97377 4.8254 2.14959 4.64959C2.3254 4.47377 2.56386 4.375 2.8125 4.375H5.47375C5.97875 5.12875 6.8375 5.625 7.8125 5.625ZM7.8125 1.875H12.1875C12.4361 1.875 12.6746 1.97377 12.8504 2.14959C13.0262 2.3254 13.125 2.56386 13.125 2.8125C13.125 3.06114 13.0262 3.2996 12.8504 3.47541C12.6746 3.65123 12.4361 3.75 12.1875 3.75H7.8125C7.56386 3.75 7.3254 3.65123 7.14959 3.47541C6.97377 3.2996 6.875 3.06114 6.875 2.8125C6.875 2.56386 6.97377 2.3254 7.14959 2.14959C7.3254 1.97377 7.56386 1.875 7.8125 1.875Z" fill="#111111"/>
</svg>
