<svg width="26" height="25" viewBox="0 0 26 25" fill="none" xmlns="http://www.w3.org/2000/svg">
<path fill-rule="evenodd" clip-rule="evenodd" d="M11.4375 2.08334C10.0256 2.08346 8.63425 2.42122 7.37945 3.06844C6.12465 3.71566 5.04282 4.65357 4.22422 5.80392C3.40562 6.95427 2.87399 8.2837 2.67367 9.68131C2.47336 11.0789 2.61018 12.5041 3.07271 13.8381C3.53524 15.1721 4.31007 16.3761 5.33256 17.3497C6.35505 18.3233 7.59555 19.0383 8.95055 19.435C10.3056 19.8317 11.7358 19.8986 13.1219 19.6301C14.508 19.3617 15.8099 18.7656 16.9188 17.8917L20.7229 21.6958C20.9194 21.8856 21.1825 21.9906 21.4556 21.9882C21.7288 21.9858 21.99 21.8763 22.1832 21.6832C22.3763 21.49 22.4858 21.2288 22.4882 20.9556C22.4906 20.6825 22.3856 20.4194 22.1959 20.2229L18.3917 16.4188C19.4208 15.1132 20.0616 13.5442 20.2407 11.8914C20.4198 10.2386 20.13 8.56878 19.4044 7.07302C18.6788 5.57727 17.5468 4.31601 16.1378 3.43358C14.7289 2.55116 13.1 2.08323 11.4375 2.08334ZM4.66669 10.9375C4.66669 9.14177 5.38004 7.41959 6.64982 6.14981C7.9196 4.88003 9.64178 4.16668 11.4375 4.16668C13.2333 4.16668 14.9554 4.88003 16.2252 6.14981C17.495 7.41959 18.2084 9.14177 18.2084 10.9375C18.2084 12.7332 17.495 14.4554 16.2252 15.7252C14.9554 16.995 13.2333 17.7083 11.4375 17.7083C9.64178 17.7083 7.9196 16.995 6.64982 15.7252C5.38004 14.4554 4.66669 12.7332 4.66669 10.9375Z" fill="#010E14"/>
</svg>
