<svg width="20" height="20" viewBox="0 0 20 20" fill="none" xmlns="http://www.w3.org/2000/svg">
<path fill-rule="evenodd" clip-rule="evenodd" d="M8.93752 0.083374C7.52564 0.0834943 6.13425 0.421253 4.87945 1.06847C3.62465 1.71569 2.54282 2.6536 1.72422 3.80395C0.905623 4.9543 0.373989 6.28374 0.173674 7.68134C-0.0266397 9.07894 0.110175 10.5042 0.572706 11.8381C1.03524 13.1721 1.81007 14.3761 2.83256 15.3498C3.85505 16.3234 5.09555 17.0383 6.45055 17.435C7.80556 17.8317 9.23579 17.8986 10.6219 17.6302C12.008 17.3617 13.3099 16.7656 14.4188 15.8917L18.2229 19.6959C18.4194 19.8856 18.6825 19.9906 18.9556 19.9882C19.2288 19.9859 19.49 19.8763 19.6832 19.6832C19.8763 19.4901 19.9858 19.2288 19.9882 18.9557C19.9906 18.6825 19.8856 18.4194 19.6959 18.223L15.8917 14.4188C16.9208 13.1132 17.5616 11.5442 17.7407 9.89142C17.9198 8.23863 17.63 6.56881 16.9044 5.07305C16.1788 3.5773 15.0468 2.31604 13.6378 1.43361C12.2289 0.551193 10.6 0.0832624 8.93752 0.083374ZM2.16669 8.93754C2.16669 7.1418 2.88004 5.41962 4.14982 4.14984C5.4196 2.88006 7.14178 2.16671 8.93752 2.16671C10.7333 2.16671 12.4554 2.88006 13.7252 4.14984C14.995 5.41962 15.7084 7.1418 15.7084 8.93754C15.7084 10.7333 14.995 12.4555 13.7252 13.7252C12.4554 14.995 10.7333 15.7084 8.93752 15.7084C7.14178 15.7084 5.4196 14.995 4.14982 13.7252C2.88004 12.4555 2.16669 10.7333 2.16669 8.93754Z" fill="#010E14"/>
</svg>
