<svg width="22" height="22" viewBox="0 0 22 22" fill="none" xmlns="http://www.w3.org/2000/svg">
<path d="M19.5615 11.6875C19.3945 11.4974 19.3024 11.253 19.3024 11C19.3024 10.747 19.3945 10.5026 19.5615 10.3125L20.8948 8.81249C21.0418 8.64861 21.133 8.44239 21.1554 8.22344C21.1779 8.00448 21.1304 7.78404 21.0198 7.59374L18.9365 3.98958C18.827 3.79949 18.6603 3.64882 18.4602 3.55904C18.2601 3.46926 18.0367 3.44495 17.8219 3.48958L15.8636 3.88541C15.6144 3.9369 15.355 3.8954 15.1343 3.76874C14.9136 3.64209 14.7469 3.43904 14.6657 3.19791L14.0302 1.29166C13.9604 1.08476 13.8272 0.90506 13.6497 0.777953C13.4721 0.650846 13.259 0.582762 13.0407 0.583326H8.874C8.64684 0.57147 8.42205 0.634291 8.23396 0.762195C8.04587 0.890098 7.90481 1.07605 7.83233 1.29166L7.249 3.19791C7.16775 3.43904 7.00105 3.64209 6.78036 3.76874C6.55968 3.8954 6.30026 3.9369 6.05108 3.88541L4.04066 3.48958C3.83707 3.46081 3.62952 3.49293 3.44415 3.58191C3.25878 3.67088 3.10389 3.81273 2.999 3.98958L0.915663 7.59374C0.802288 7.78192 0.751311 8.00112 0.77002 8.22002C0.788729 8.43891 0.876166 8.64628 1.01983 8.81249L2.34275 10.3125C2.50975 10.5026 2.60184 10.747 2.60184 11C2.60184 11.253 2.50975 11.4974 2.34275 11.6875L1.01983 13.1875C0.876166 13.3537 0.788729 13.5611 0.77002 13.78C0.751311 13.9989 0.802288 14.2181 0.915663 14.4062L2.999 18.0104C3.10847 18.2005 3.27516 18.3512 3.4753 18.4409C3.67544 18.5307 3.89881 18.555 4.11358 18.5104L6.07191 18.1146C6.3211 18.0631 6.58051 18.1046 6.8012 18.2312C7.02188 18.3579 7.18858 18.5609 7.26983 18.8021L7.90525 20.7083C7.97772 20.9239 8.11878 21.1099 8.30688 21.2378C8.49497 21.3657 8.71976 21.4285 8.94691 21.4167H13.1136C13.332 21.4172 13.545 21.3491 13.7226 21.222C13.9001 21.0949 14.0333 20.9152 14.1032 20.7083L14.7386 18.8021C14.8198 18.5609 14.9865 18.3579 15.2072 18.2312C15.4279 18.1046 15.6873 18.0631 15.9365 18.1146L17.8948 18.5104C18.1096 18.555 18.333 18.5307 18.5331 18.4409C18.7332 18.3512 18.8999 18.2005 19.0094 18.0104L21.0927 14.4062C21.2033 14.2159 21.2508 13.9955 21.2284 13.7765C21.2059 13.5576 21.1147 13.3514 20.9677 13.1875L19.5615 11.6875ZM18.0094 13.0833L18.8427 14.0208L17.5094 16.3333L16.2802 16.0833C15.53 15.93 14.7496 16.0574 14.0871 16.4415C13.4246 16.8255 12.9262 17.4394 12.6865 18.1667L12.2907 19.3333H9.624L9.249 18.1458C9.00926 17.4186 8.51085 16.8047 7.84838 16.4206C7.1859 16.0366 6.40548 15.9091 5.65525 16.0625L4.42608 16.3125L3.07191 14.0104L3.90525 13.0729C4.4177 12.5 4.70101 11.7583 4.70101 10.9896C4.70101 10.2209 4.4177 9.47918 3.90525 8.90624L3.07191 7.96874L4.40525 5.67708L5.63441 5.92708C6.38464 6.08043 7.16507 5.95299 7.82754 5.56895C8.49002 5.18491 8.98843 4.57099 9.22816 3.84374L9.624 2.66666H12.2907L12.6865 3.85416C12.9262 4.58141 13.4246 5.19532 14.0871 5.57937C14.7496 5.96341 15.53 6.09085 16.2802 5.93749L17.5094 5.68749L18.8427 7.99999L18.0094 8.93749C17.5027 9.50912 17.2229 10.2465 17.2229 11.0104C17.2229 11.7743 17.5027 12.5117 18.0094 13.0833ZM10.9573 6.83333C10.1332 6.83333 9.32766 7.0777 8.64245 7.53554C7.95725 7.99337 7.4232 8.64412 7.10783 9.40548C6.79247 10.1668 6.70995 11.0046 6.87072 11.8129C7.0315 12.6211 7.42833 13.3636 8.01105 13.9463C8.59377 14.529 9.3362 14.9258 10.1445 15.0866C10.9527 15.2474 11.7905 15.1649 12.5518 14.8495C13.3132 14.5341 13.9639 14.0001 14.4218 13.3149C14.8796 12.6297 15.124 11.8241 15.124 11C15.124 9.89492 14.685 8.83512 13.9036 8.05371C13.1222 7.27231 12.0624 6.83333 10.9573 6.83333ZM10.9573 13.0833C10.5453 13.0833 10.1425 12.9611 9.79989 12.7322C9.45729 12.5033 9.19026 12.1779 9.03258 11.7972C8.8749 11.4166 8.83364 10.9977 8.91403 10.5936C8.99441 10.1894 9.19283 9.81821 9.48419 9.52685C9.77555 9.23549 10.1468 9.03708 10.5509 8.95669C10.955 8.8763 11.3739 8.91756 11.7546 9.07524C12.1353 9.23293 12.4606 9.49995 12.6896 9.84255C12.9185 10.1852 13.0407 10.5879 13.0407 11C13.0407 11.5525 12.8212 12.0824 12.4305 12.4731C12.0398 12.8638 11.5099 13.0833 10.9573 13.0833Z" fill="#010E14"/>
</svg>
