<svg width="17" height="18" viewBox="0 0 9 10" fill="none" xmlns="http://www.w3.org/2000/svg">
<path d="M0.422142 0.807518C0.480199 0.749314 0.549169 0.703135 0.6251 0.671627C0.701032 0.640119 0.782433 0.623901 0.864642 0.623901C0.946851 0.623901 1.02825 0.640119 1.10418 0.671627C1.18012 0.703135 1.24909 0.749314 1.30714 0.807518L4.61464 4.11627L7.92214 0.807518C7.98025 0.749408 8.04924 0.703313 8.12516 0.671864C8.20109 0.640415 8.28246 0.624229 8.36464 0.624229C8.44682 0.624229 8.5282 0.640415 8.60412 0.671864C8.68005 0.703313 8.74903 0.749408 8.80714 0.807518C8.86525 0.865628 8.91135 0.934615 8.9428 1.01054C8.97425 1.08646 8.99043 1.16784 8.99043 1.25002C8.99043 1.3322 8.97425 1.41357 8.9428 1.4895C8.91135 1.56542 8.86525 1.63441 8.80714 1.69252L5.49839 5.00002L8.80714 8.30752C8.86525 8.36563 8.91135 8.43461 8.9428 8.51054C8.97425 8.58646 8.99043 8.66784 8.99043 8.75002C8.99043 8.8322 8.97425 8.91357 8.9428 8.9895C8.91135 9.06542 8.86525 9.13441 8.80714 9.19252C8.74903 9.25063 8.68005 9.29672 8.60412 9.32817C8.5282 9.35962 8.44682 9.37581 8.36464 9.37581C8.28246 9.37581 8.20109 9.35962 8.12516 9.32817C8.04924 9.29672 7.98025 9.25063 7.92214 9.19252L4.61464 5.88377L1.30714 9.19252C1.24903 9.25063 1.18005 9.29672 1.10412 9.32817C1.0282 9.35962 0.946822 9.37581 0.864642 9.37581C0.782463 9.37581 0.701087 9.35962 0.625163 9.32817C0.549239 9.29672 0.480252 9.25063 0.422142 9.19252C0.364032 9.13441 0.317937 9.06542 0.286488 8.9895C0.255039 8.91357 0.238853 8.8322 0.238853 8.75002C0.238853 8.66784 0.255039 8.58646 0.286488 8.51054C0.317937 8.43461 0.364032 8.36563 0.422142 8.30752L3.73089 5.00002L0.422142 1.69252C0.363938 1.63446 0.317759 1.56549 0.286251 1.48956C0.254743 1.41363 0.238525 1.33223 0.238525 1.25002C0.238525 1.16781 0.254743 1.08641 0.286251 1.01048C0.317759 0.934545 0.363938 0.865575 0.422142 0.807518Z" fill="#010E14"/>
</svg>
