<svg width="10" height="9" viewBox="0 0 10 9" fill="none" xmlns="http://www.w3.org/2000/svg">
<path d="M0.971825 0.412743C1.02988 0.354539 1.09885 0.30836 1.17478 0.276852C1.25071 0.245344 1.33212 0.229126 1.41432 0.229126C1.49653 0.229126 1.57794 0.245344 1.65387 0.276852C1.7298 0.30836 1.79877 0.354539 1.85683 0.412743L5.16432 3.72149L8.47182 0.412743C8.52993 0.354633 8.59892 0.308538 8.67485 0.277089C8.75077 0.24564 8.83214 0.229453 8.91432 0.229453C8.9965 0.229453 9.07788 0.24564 9.1538 0.277089C9.22973 0.308538 9.29871 0.354633 9.35682 0.412743C9.41493 0.470853 9.46103 0.539839 9.49248 0.615763C9.52393 0.691688 9.54011 0.773063 9.54011 0.855243C9.54011 0.937423 9.52393 1.0188 9.49248 1.09472C9.46103 1.17065 9.41493 1.23963 9.35682 1.29774L6.04807 4.60524L9.35682 7.91274C9.41493 7.97085 9.46103 8.03984 9.49248 8.11576C9.52393 8.19169 9.54011 8.27306 9.54011 8.35524C9.54011 8.43742 9.52393 8.5188 9.49248 8.59472C9.46103 8.67065 9.41493 8.73963 9.35682 8.79774C9.29871 8.85585 9.22973 8.90195 9.1538 8.9334C9.07788 8.96485 8.9965 8.98103 8.91432 8.98103C8.83214 8.98103 8.75077 8.96485 8.67485 8.9334C8.59892 8.90195 8.52993 8.85585 8.47182 8.79774L5.16432 5.48899L1.85683 8.79774C1.79872 8.85585 1.72973 8.90195 1.6538 8.9334C1.57788 8.96485 1.4965 8.98103 1.41432 8.98103C1.33215 8.98103 1.25077 8.96485 1.17485 8.9334C1.09892 8.90195 1.02993 8.85585 0.971825 8.79774C0.913715 8.73963 0.86762 8.67065 0.836171 8.59472C0.804722 8.5188 0.788535 8.43742 0.788535 8.35524C0.788535 8.27306 0.804722 8.19169 0.836171 8.11576C0.86762 8.03984 0.913715 7.97085 0.971825 7.91274L4.28058 4.60524L0.971825 1.29774C0.913621 1.23969 0.867442 1.17072 0.835934 1.09479C0.804426 1.01885 0.788208 0.937452 0.788208 0.855243C0.788208 0.773034 0.804426 0.691632 0.835934 0.615701C0.867442 0.539769 0.913621 0.4708 0.971825 0.412743Z" fill="#D9D9D9"/>
</svg>
