<svg width="21" height="20" viewBox="0 0 21 20" fill="none" xmlns="http://www.w3.org/2000/svg">
<path d="M6.42214 5.80752C6.4802 5.74931 6.54917 5.70314 6.6251 5.67163C6.70103 5.64012 6.78243 5.6239 6.86464 5.6239C6.94685 5.6239 7.02825 5.64012 7.10418 5.67163C7.18012 5.70314 7.24909 5.74931 7.30714 5.80752L10.6146 9.11627L13.9221 5.80752C13.9803 5.74941 14.0492 5.70331 14.1252 5.67186C14.2011 5.64042 14.2825 5.62423 14.3646 5.62423C14.4468 5.62423 14.5282 5.64042 14.6041 5.67186C14.68 5.70331 14.749 5.74941 14.8071 5.80752C14.8653 5.86563 14.9113 5.93461 14.9428 6.01054C14.9742 6.08646 14.9904 6.16784 14.9904 6.25002C14.9904 6.3322 14.9742 6.41357 14.9428 6.4895C14.9113 6.56542 14.8653 6.63441 14.8071 6.69252L11.4984 10L14.8071 13.3075C14.8653 13.3656 14.9113 13.4346 14.9428 13.5105C14.9742 13.5865 14.9904 13.6678 14.9904 13.75C14.9904 13.8322 14.9742 13.9136 14.9428 13.9895C14.9113 14.0654 14.8653 14.1344 14.8071 14.1925C14.749 14.2506 14.68 14.2967 14.6041 14.3282C14.5282 14.3596 14.4468 14.3758 14.3646 14.3758C14.2825 14.3758 14.2011 14.3596 14.1252 14.3282C14.0492 14.2967 13.9803 14.2506 13.9221 14.1925L10.6146 10.8838L7.30714 14.1925C7.24903 14.2506 7.18005 14.2967 7.10412 14.3282C7.0282 14.3596 6.94682 14.3758 6.86464 14.3758C6.78246 14.3758 6.70109 14.3596 6.62516 14.3282C6.54924 14.2967 6.48025 14.2506 6.42214 14.1925C6.36403 14.1344 6.31794 14.0654 6.28649 13.9895C6.25504 13.9136 6.23885 13.8322 6.23885 13.75C6.23885 13.6678 6.25504 13.5865 6.28649 13.5105C6.31794 13.4346 6.36403 13.3656 6.42214 13.3075L9.73089 10L6.42214 6.69252C6.36394 6.63446 6.31776 6.56549 6.28625 6.48956C6.25474 6.41363 6.23853 6.33223 6.23853 6.25002C6.23853 6.16781 6.25474 6.08641 6.28625 6.01048C6.31776 5.93454 6.36394 5.86558 6.42214 5.80752Z" fill="#FB5656"/>
</svg>
